<svg
      xmlns="http://www.w3.org/2000/svg"
      width="300"
      height="300"
      version="1.1"
    >
      <g fillOpacity="1" transform="translate(-177.143 -343.791)">
        <g transform="matrix(3 0 0 3 -354.285 -1287.583)">
          <circle cx="227.143" cy="593.791" r="50" fill="#00af89"></circle>
          <g
            fill="#fff"
            stroke="none"
            strokeDasharray="none"
            strokeLinecap="round"
            strokeLinejoin="round"
            strokeMiterlimit="4"
            strokeOpacity="1"
            fontSize="medium"
            fontStretch="normal"
            fontStyle="normal"
            fontVariant="normal"
            textAnchor="start"
            transform="matrix(1.06738 0 0 1.06738 -13.364 -42.717)"
            writingMode="lr-tb"
          >
            <path
              fillRule="nonzero"
              d="M200.542 606.976c-1.215-.056-2.293.9-2.356 2.136v.012c-.273 5.072 2.458 9.79 6.933 12.04.003.001.003.004.006.006a12.39 12.39 0 005.288 1.36c.873.025 1.748-.053 2.608-.212l-.487 1.094a2.252 2.252 0 001.14 2.966c.006.003.016.01.023.012.287.126.574.169.834.177.88.026 1.742-.471 2.127-1.336l2.861-6.474.012-.03v-.005h.006l.018-.041.029-.07c-.003.006-.003.028-.006.034.008-.015.01-.037.018-.059l.035-.076v-.035c.009-.02.015-.076.023-.118l.006-.024c.055-.194.055-.243.03-.153l.035-.117v-.112l.006-.147v-.041c.005-.156 0-.226-.006-.218v-.059l-.023-.106c-.002-.01-.01-.03-.012-.041l.006-.041-.047-.147c.004.013-.016-.068-.065-.183-.023-.064-.05-.105-.076-.147-.013-.026-.012-.038-.012-.035l-.018-.03-.064-.14-.041-.042-.047-.077c-.102-.163-.18-.23-.218-.27l-.023-.03c-.059-.062-.098-.088-.118-.106-.009-.005-.022-.007-.035-.017-.205-.216-.238-.232-.076-.06-.012-.007-.02-.017-.03-.023-.002-.002-.004.002-.006 0-.002 0 .001-.005 0-.006l-.059-.059-.076-.053c-.02-.014-.04-.017-.059-.029a1.306 1.306 0 00-.24-.13l.005-.005-.058-.024-6.551-2.878h-.006c-1.129-.502-2.463.03-2.961 1.148a2.267 2.267 0 001.14 2.972h.011l2.174.959a7.888 7.888 0 01-4.964-.753l-.106-.053c-2.831-1.455-4.556-4.46-4.389-7.739.058-1.22-.901-2.305-2.138-2.366z"
              strokeWidth="14.341"
              baselineShift="baseline"
              color="#000"
              direction="ltr"
              display="inline"
              enableBackground="accumulate"
              fontFamily="Sans"
              fontWeight="normal"
              letterSpacing="normal"
              overflow="visible"
              textDecoration="none"
              visibility="visible"
              wordSpacing="normal"
            ></path>
            <path
              fillRule="nonzero"
              d="M237.82 561.268a2.242 2.242 0 00-2.091 1.341l-.006.012-2.885 6.532v.006l-.006.006-.023.047c-.004.013-.006.025-.012.042l-.006.011h-.006l-.012.03c.004-.005.009 0 .012 0l-.006.012c-.002.002-.01.002-.012.006l-.006.017v.024l-.006.006c-.013.02-.022.074-.035.135v.024a2.48 2.48 0 00-.047.188l-.018.082v.118l-.006.141v.041c-.004.135.002.156.006.142v.011l-.006.124.024.112.011.041v.041l.042.142c-.004-.014.016.067.064.182.023.064.05.105.077.147.013.026.012.038.011.035.002.004.01.008.012.012-.003-.008.013.033.006.018l.065.141.04.041.054.077c.101.163.179.23.217.27l.024.024v.006c.133.141.17.17.088.082.026.028.032.02.059.042.205.216.238.232.076.058.014.014.015.011.03.024l.005.006h.006l.053.059.077.053c.02.014.04.017.058.03.073.048.15.092.241.129l-.006.006.06.023 6.556 2.878c1.128.503 2.462-.03 2.961-1.148a2.267 2.267 0 00-1.14-2.972h-.012l-2.168-.959a7.87 7.87 0 014.959.754l.106.053c2.83 1.455 4.555 4.46 4.388 7.738-.058 1.221.9 2.307 2.139 2.366h.041a2.268 2.268 0 002.315-2.142c.261-5.082-2.452-9.82-6.944-12.058a12.347 12.347 0 00-7.884-1.154l.487-1.094a2.254 2.254 0 00-1.152-2.966v-.006l-.012-.006a2.233 2.233 0 00-.863-.183z"
              strokeWidth="14.341"
              baselineShift="baseline"
              color="#000"
              direction="ltr"
              display="inline"
              enableBackground="accumulate"
              fontFamily="Sans"
              fontWeight="normal"
              letterSpacing="normal"
              overflow="visible"
              textDecoration="none"
              visibility="visible"
              wordSpacing="normal"
            ></path>
            <path
              strokeWidth="11.076"
              d="M210.354 566.4a.94.942 0 00-.218.04l-3.871 1.242a.94.942 0 00-.488 1.436c.832 1.196 1.547 2.463 2.203 3.76h-14.347a.94.942 0 00-.94.942v3.72a.94.942 0 00.94.94h7.761l-1.034.419a.94.942 0 00-.529 1.212c2.047 5.373 4.555 9.719 7.538 13.053-3.447 2.537-8.209 4.816-14.312 6.78a.94.942 0 00-.505 1.394l2.068 3.313a.94.942 0 001.057.406c6.047-1.772 11.41-4.455 16.07-8.033 4.322 3.302 9.531 6.073 15.633 8.316a.94.942 0 001.105-.354l2.226-3.29a.94.942 0 00-.458-1.417c-6.091-2.192-10.822-4.583-14.218-7.121 3.163-3.644 5.697-8.539 7.644-14.677h6.016a.94.942 0 00.94-.942v-3.719a.94.942 0 00-.94-.942H214.32c-.758-1.86-1.762-3.854-3.09-6.032a.94.942 0 00-.876-.447zm-4.994 12.08h12.238c-1.586 4.727-3.582 8.36-5.946 10.923-2.39-2.54-4.498-6.187-6.292-10.922z"
              fontFamily="Microsoft JhengHei"
              fontWeight="bold"
              letterSpacing="0"
              wordSpacing="0"
            ></path>
            <path
              fillRule="nonzero"
              d="M239.595 586.796a.94.942 0 00-.882.606l-11.844 31.473a.94.942 0 00.881 1.27h5.353a.94.942 0 00.887-.635l2.585-7.55h11.24l2.72 7.562a.94.942 0 00.88.624h5.359a.94.942 0 00.875-1.271l-11.762-31.467a.94.942 0 00-.881-.612h-5.411zm2.567 8.963l3.631 10.275h-7.226l3.595-10.275z"

              strokeWidth="10"
              baselineShift="baseline"
              color="#000"
              direction="ltr"
              display="inline"
              enableBackground="accumulate"
              fontFamily="Microsoft JhengHei"
              fontWeight="normal"
              letterSpacing="0"
              overflow="visible"
              textDecoration="none"
              visibility="visible"
              wordSpacing="0"
            ></path>
          </g>
        </g>
        <path
          fill="#fff"
          fillRule="nonzero"
          stroke="none"
          d="M652.375 620.813l-48.563 48.593 111.875 111.907-111.875 111.875 48.563 48.593 111.906-111.906 111.907 111.906 48.562-48.593-111.875-111.875L924.75 669.405l-48.563-48.593-111.906 111.906-111.906-111.907z"
          transform="matrix(.94213 0 0 .94213 221.373 237.574)"
        ></path>
        <path
          fill="#fff"
          fillRule="nonzero"
          stroke="none"
          d="M652.375 620.813l-48.563 48.593 111.875 111.907-111.875 111.875 48.563 48.593 111.906-111.906 111.907 111.906 48.562-48.593-111.875-111.875L924.75 669.405l-48.563-48.593-111.906 111.906-111.906-111.907z"
          transform="matrix(0 -.66619 0 .66619 759.963 962.325)"
        ></path>
        <g
          transform="matrix(3.14355 0 0 3.14355 -4699.55 974.82)"
          fill="#fff"
          stroke="none"
          fontFamily="College Slab"
          fontSize="144"
          fontStretch="normal"
          fontStyle="normal"
          fontVariant="normal"
          fontWeight="bold"
          letterSpacing="0"
          wordSpacing="0"
        >
          <path
            d="M2494.286-197.59v73.871h-17.856v-73.872h17.856m2.448-21.528c0 1.536-.312 2.976-.936 4.32a11.558 11.558 0 01-2.52 3.528c-1.008 1.008-2.208 1.824-3.6 2.448-1.392.576-2.88.864-4.464.864-1.536 0-3-.288-4.392-.864a12.213 12.213 0 01-3.528-2.448 12.214 12.214 0 01-2.448-3.528c-.576-1.344-.864-2.784-.864-4.32 0-1.584.288-3.072.864-4.464.624-1.392 1.44-2.592 2.448-3.6a11.15 11.15 0 013.528-2.376 10.621 10.621 0 014.392-.936c1.584 0 3.072.312 4.464.936 1.392.576 2.592 1.368 3.6 2.376a11.32 11.32 0 012.52 3.6c.624 1.392.936 2.88.936 4.464"
            fill="#fff"
            fontFamily="Lato"
          ></path>
        </g>
      </g>
    </svg>